<?xml version="1.0" standalone="no"?>
<!DOCTYPE svg PUBLIC "-//W3C//DTD SVG 20010904//EN"
 "http://www.w3.org/TR/2001/REC-SVG-20010904/DTD/svg10.dtd">
<svg version="1.0" xmlns="http://www.w3.org/2000/svg"
 width="1200.000000pt" height="1200.000000pt" viewBox="0 0 1200.000000 1200.000000"
 preserveAspectRatio="xMidYMid meet">
<metadata>
Created by potrace 1.14, written by Peter Selinger 2001-2017
</metadata>
<g transform="translate(0.000000,1200.000000) scale(0.100000,-0.100000)"
fill="#000000" stroke="none">
<path d="M5714 11923 c-10 -43 -18 -82 -20 -88 -1 -5 -11 -49 -23 -97 -11 -48
-22 -98 -25 -110 -2 -13 -11 -52 -20 -88 -9 -36 -22 -94 -30 -130 -8 -36 -31
-137 -51 -225 -20 -88 -38 -167 -40 -175 -12 -54 -189 -819 -205 -884 -18 -80
-46 -202 -55 -241 -2 -11 -9 -38 -14 -60 -5 -22 -12 -51 -14 -65 -3 -14 -16
-72 -30 -130 -27 -108 -145 -623 -152 -661 -2 -12 -13 -58 -24 -103 -11 -44
-23 -92 -25 -106 -3 -14 -7 -34 -10 -45 -6 -26 -42 -183 -109 -475 -30 -129
-80 -345 -112 -480 -31 -135 -59 -254 -61 -265 -9 -48 -13 -62 -19 -87 l-7
-28 -222 -1 c-121 0 -475 0 -786 0 l-565 1 2 -168 c1 -92 2 -178 2 -192 l1
-25 740 1 c407 1 740 -2 740 -5 0 -3 -7 -31 -15 -61 -8 -30 -17 -68 -20 -84
-6 -29 -53 -236 -100 -436 -14 -58 -56 -242 -94 -410 -39 -168 -88 -384 -111
-480 -22 -96 -63 -274 -91 -395 -28 -121 -52 -227 -54 -235 -6 -25 -43 -187
-79 -345 -19 -82 -48 -206 -65 -275 -61 -259 -101 -429 -130 -550 -16 -69 -40
-172 -54 -230 -14 -58 -40 -166 -57 -240 -18 -74 -43 -182 -57 -239 -13 -57
-26 -111 -28 -120 -2 -9 -17 -74 -34 -145 -17 -70 -33 -138 -35 -150 -2 -11
-29 -118 -60 -236 -31 -118 -59 -226 -62 -240 -48 -189 -244 -797 -295 -915
-4 -11 -27 -67 -49 -124 -74 -189 -170 -382 -266 -538 -122 -198 -278 -390
-411 -505 l-44 -38 1708 0 1709 0 23 102 c13 57 41 176 62 265 21 90 41 173
43 185 2 13 16 73 31 133 15 61 28 118 31 129 5 29 122 527 149 641 40 167
104 438 109 465 2 14 18 84 36 155 17 72 33 141 36 155 3 14 14 59 24 100 10
41 21 86 24 100 2 14 37 162 76 330 39 168 73 312 75 320 2 8 20 85 40 170 20
85 38 162 40 170 2 8 17 76 35 150 18 74 47 203 66 285 19 83 43 187 54 231
12 45 22 90 25 100 15 76 40 180 70 304 19 80 42 174 50 210 7 36 55 241 105
455 50 215 93 397 95 406 6 27 35 151 55 234 11 44 21 91 24 105 2 14 9 45 16
70 7 25 14 53 16 63 2 10 5 26 8 35 3 9 7 28 10 42 2 14 14 66 26 115 12 50
23 99 26 110 10 51 125 534 133 563 5 18 10 35 10 37 0 3 2 18 6 34 l6 29
1272 0 c700 1 1300 1 1335 1 l62 1 0 189 0 189 -1272 1 c-700 0 -1281 0 -1291
1 -14 0 -17 5 -12 20 3 11 8 32 11 46 4 22 25 116 40 174 25 105 150 639 160
685 2 11 20 88 40 170 19 83 37 159 40 170 5 26 7 35 44 195 17 74 40 171 51
215 11 44 22 94 25 110 3 17 10 48 16 70 5 22 12 51 15 64 2 13 11 51 19 85 8
34 17 70 19 81 17 76 37 165 46 195 5 19 14 58 20 85 65 300 153 646 245 955
19 63 41 133 48 155 8 22 26 78 40 125 15 47 31 94 36 105 5 11 24 65 44 120
62 175 78 218 149 380 30 71 139 282 169 330 13 22 30 50 37 63 l12 22 -1555
0 -1554 0 -18 -77z"/>
<path d="M9937 11943 c-145 -190 -235 -408 -265 -640 -9 -72 -9 -361 0 -428 9
-63 36 -195 45 -215 3 -8 7 -17 8 -20 23 -91 92 -237 158 -335 216 -323 613
-575 1007 -639 179 -30 450 -25 600 10 14 3 32 7 40 9 135 29 315 105 443 189
l27 18 0 1054 0 1054 -1009 0 -1010 0 -44 -57z"/>
<path d="M230 2843 c-79 -12 -197 -37 -212 -45 -17 -8 -18 -85 -18 -1403 l0
-1395 430 0 c429 0 430 0 493 24 101 38 224 102 328 171 318 211 563 549 628
865 6 30 14 66 17 80 26 123 23 444 -5 570 -5 25 -12 59 -15 75 -9 47 -51 174
-80 240 -151 340 -461 617 -828 740 -92 31 -148 44 -288 71 -39 7 -410 13
-450 7z"/>
</g>
</svg>
